<svg width="186" height="32" viewBox="0 0 186 32" fill="none" xmlns="http://www.w3.org/2000/svg">
<g opacity="0.8">
<path d="M35.5002 28C34.2006 28 33.3999 27.4 32.0917 26.6934C30.7835 25.9867 26.9999 23.1416 26.9999 19.6C26.9999 17.1975 26.3806 15.2543 25.3259 13.7057C24.279 12.169 22.8608 11.1043 21.3855 10.3527C20.6745 9.99064 19.9347 9.69452 19.198 9.4498C18.7685 9.30724 18.5192 8.84608 18.7056 8.4338C19.8866 5.81916 22.5169 4 25.5724 4C29.7316 4 33.1034 7.37168 33.1034 11.531C33.1034 12.4209 32.9491 13.2748 32.6657 14.0672C33.8662 13.2582 35.3126 12.7861 36.869 12.7861C41.0282 12.7861 44.3998 16.1578 44.3998 20.3172C44.3998 25.3244 39.9998 28 35.5002 28Z" fill="#8FB2F5"/>
<path d="M8 19.6896C8 23.6593 10.6172 26.967 14.0844 27.6978C14.6195 27.8933 15.1973 28 15.8 28H27.501C27.8934 28 28.0642 27.4752 27.7646 27.2216C25.7197 25.4914 24.2 23.0529 24.2 19.6C24.2 17.7027 23.7195 16.3208 23.0117 15.282C22.2959 14.2312 21.2891 13.4458 20.1146 12.8474C18.9293 12.2437 17.6424 11.8591 16.4135 11.5865C16.124 11.55 15.8295 11.531 15.531 11.531C11.3717 11.531 8 15.1838 8 19.6896Z" fill="#8FB2F5"/>
<path d="M57.1663 23.1732C56.7766 23.1732 56.4591 23.0794 56.2137 22.8917C55.9828 22.7041 55.7951 22.4082 55.6508 22.0041L51.1258 9.20844C50.967 8.74656 50.9959 8.35685 51.2124 8.0393C51.4433 7.72176 51.8258 7.56298 52.3599 7.56298C52.7496 7.56298 53.0527 7.6568 53.2692 7.84444C53.4857 8.01765 53.6589 8.29911 53.7888 8.68883L57.686 20.2503H56.8199L60.8903 8.71048C61.0346 8.32076 61.215 8.03208 61.4316 7.84444C61.6481 7.6568 61.9295 7.56298 62.2759 7.56298C62.6223 7.56298 62.8966 7.6568 63.0987 7.84444C63.3007 8.03208 63.4739 8.32798 63.6183 8.73213L67.5587 20.2503H66.8009L70.763 8.68883C70.8929 8.31354 71.0662 8.03208 71.2827 7.84444C71.4992 7.6568 71.7951 7.56298 72.1703 7.56298C72.6322 7.56298 72.9714 7.72176 73.1879 8.0393C73.4044 8.35685 73.4333 8.74656 73.2745 9.20844L68.7062 22.0257C68.5619 22.4154 68.3742 22.7041 68.1433 22.8917C67.9124 23.0794 67.602 23.1732 67.2123 23.1732C66.8226 23.1732 66.5123 23.0794 66.2813 22.8917C66.0504 22.7041 65.8627 22.4082 65.7184 22.0041L61.9512 11.2653H62.4491L58.6386 22.0257C58.4943 22.4154 58.3066 22.7041 58.0757 22.8917C57.8592 23.0794 57.5561 23.1732 57.1663 23.1732ZM79.5052 23.2165C78.3072 23.2165 77.2752 22.9928 76.4092 22.5453C75.5431 22.0979 74.872 21.4628 74.3956 20.6401C73.9338 19.8173 73.7028 18.843 73.7028 17.7172C73.7028 16.6202 73.9265 15.6604 74.374 14.8377C74.8359 14.0149 75.4637 13.3726 76.2576 12.9107C77.0659 12.4344 77.9825 12.1963 79.0073 12.1963C79.7578 12.1963 80.429 12.3189 81.0208 12.5643C81.627 12.8097 82.1394 13.1633 82.558 13.6252C82.991 14.0871 83.3158 14.65 83.5323 15.314C83.7632 15.9635 83.8787 16.6996 83.8787 17.5223C83.8787 17.7822 83.7849 17.9842 83.5972 18.1286C83.424 18.2585 83.1714 18.3234 82.8394 18.3234H75.8895V16.7646H81.9734L81.627 17.0893C81.627 16.4254 81.526 15.8697 81.3239 15.4222C81.1363 14.9748 80.8548 14.6356 80.4795 14.4046C80.1187 14.1593 79.664 14.0366 79.1155 14.0366C78.5093 14.0366 77.9897 14.1809 77.5567 14.4696C77.1381 14.7438 76.8133 15.1408 76.5824 15.6604C76.3659 16.1656 76.2576 16.7718 76.2576 17.479V17.6306C76.2576 18.8142 76.5319 19.7019 77.0803 20.2937C77.6433 20.871 78.466 21.1597 79.5485 21.1597C79.9238 21.1597 80.3424 21.1164 80.8043 21.0298C81.2806 20.9287 81.728 20.7628 82.1466 20.5318C82.4497 20.3586 82.7168 20.2864 82.9477 20.3153C83.1786 20.3297 83.3591 20.4091 83.489 20.5535C83.6333 20.6978 83.7199 20.8782 83.7488 21.0947C83.7777 21.2968 83.7343 21.5061 83.6189 21.7226C83.5178 21.9391 83.3374 22.1268 83.0776 22.2855C82.5724 22.6031 81.9879 22.8412 81.3239 23C80.6744 23.1443 80.0681 23.2165 79.5052 23.2165ZM89.5077 23.2165C88.7427 23.2165 88.0571 23.0722 87.4509 22.7835C86.8591 22.4804 86.39 22.0762 86.0436 21.571C85.7116 21.0659 85.5456 20.4957 85.5456 19.8606C85.5456 19.0812 85.7477 18.4678 86.1519 18.0203C86.556 17.5584 87.2127 17.2265 88.1221 17.0244C89.0314 16.8223 90.2511 16.7213 91.7811 16.7213H92.8636V18.2801H91.8027C90.9078 18.2801 90.1933 18.3234 89.6593 18.41C89.1252 18.4966 88.7427 18.6482 88.5118 18.8647C88.2953 19.0668 88.187 19.3554 88.187 19.7307C88.187 20.207 88.353 20.5968 88.685 20.8999C89.017 21.203 89.4789 21.3545 90.0706 21.3545C90.547 21.3545 90.9655 21.2463 91.3264 21.0298C91.7017 20.7988 91.9976 20.4885 92.2141 20.0988C92.4306 19.7091 92.5388 19.2616 92.5388 18.7564V16.2666C92.5388 15.5449 92.3801 15.0253 92.0625 14.7077C91.745 14.3902 91.2109 14.2314 90.4604 14.2314C90.0418 14.2314 89.5871 14.2819 89.0964 14.383C88.62 14.484 88.1149 14.6572 87.5808 14.9026C87.3066 15.0325 87.0612 15.0686 86.8447 15.0109C86.6426 14.9531 86.4838 14.8377 86.3684 14.6644C86.2529 14.4768 86.1952 14.2747 86.1952 14.0582C86.1952 13.8417 86.2529 13.6324 86.3684 13.4303C86.4838 13.2138 86.6787 13.0551 86.9529 12.954C87.6169 12.6798 88.252 12.4849 88.8582 12.3695C89.4789 12.254 90.0418 12.1963 90.547 12.1963C91.5862 12.1963 92.4378 12.355 93.1018 12.6726C93.7801 12.9901 94.2853 13.4737 94.6173 14.1232C94.9493 14.7583 95.1153 15.581 95.1153 16.5914V21.7876C95.1153 22.235 95.007 22.5814 94.7905 22.8268C94.574 23.0577 94.2637 23.1732 93.8595 23.1732C93.4554 23.1732 93.1378 23.0577 92.9069 22.8268C92.6904 22.5814 92.5821 22.235 92.5821 21.7876V20.7483H92.7553C92.6543 21.2535 92.4522 21.6937 92.1491 22.069C91.8604 22.4299 91.4924 22.7113 91.0449 22.9134C90.5975 23.1155 90.0851 23.2165 89.5077 23.2165ZM102.712 23.2165C101.774 23.2165 100.987 23.0577 100.352 22.7402C99.7314 22.4226 99.2695 21.9608 98.9664 21.3545C98.6633 20.7339 98.5118 19.9689 98.5118 19.0596V14.4479H97.3859C97.0395 14.4479 96.7725 14.3613 96.5848 14.1881C96.3972 14.0005 96.3034 13.7479 96.3034 13.4303C96.3034 13.0984 96.3972 12.8458 96.5848 12.6726C96.7725 12.4994 97.0395 12.4128 97.3859 12.4128H98.5118V10.4425C98.5118 9.99509 98.6272 9.65589 98.8582 9.42495C99.1035 9.19401 99.4427 9.07854 99.8758 9.07854C100.309 9.07854 100.641 9.19401 100.872 9.42495C101.103 9.65589 101.218 9.99509 101.218 10.4425V12.4128H103.513C103.859 12.4128 104.127 12.4994 104.314 12.6726C104.502 12.8458 104.596 13.0984 104.596 13.4303C104.596 13.7479 104.502 14.0005 104.314 14.1881C104.127 14.3613 103.859 14.4479 103.513 14.4479H101.218V18.908C101.218 19.6008 101.37 20.1204 101.673 20.4669C101.976 20.8133 102.467 20.9865 103.145 20.9865C103.39 20.9865 103.607 20.9648 103.795 20.9215C103.982 20.8782 104.148 20.8494 104.293 20.8349C104.466 20.8205 104.61 20.8782 104.726 21.0081C104.841 21.1236 104.899 21.369 104.899 21.7443C104.899 22.0329 104.848 22.2927 104.747 22.5237C104.661 22.7402 104.495 22.8917 104.249 22.9783C104.062 23.0361 103.816 23.0866 103.513 23.1299C103.21 23.1876 102.943 23.2165 102.712 23.2165ZM107.789 23.1732C107.356 23.1732 107.024 23.0577 106.793 22.8268C106.562 22.5814 106.446 22.235 106.446 21.7876V8.92698C106.446 8.47953 106.562 8.14034 106.793 7.9094C107.024 7.67845 107.356 7.56298 107.789 7.56298C108.222 7.56298 108.554 7.67845 108.785 7.9094C109.03 8.14034 109.153 8.47953 109.153 8.92698V14.5345H108.85C109.167 13.7695 109.658 13.1922 110.322 12.8025C111 12.3983 111.765 12.1963 112.617 12.1963C113.468 12.1963 114.169 12.355 114.717 12.6726C115.266 12.9901 115.677 13.4737 115.951 14.1232C116.225 14.7583 116.362 15.5666 116.362 16.5481V21.7876C116.362 22.235 116.247 22.5814 116.016 22.8268C115.785 23.0577 115.453 23.1732 115.02 23.1732C114.587 23.1732 114.248 23.0577 114.003 22.8268C113.772 22.5814 113.656 22.235 113.656 21.7876V16.678C113.656 15.8552 113.497 15.2562 113.18 14.881C112.877 14.5057 112.4 14.318 111.751 14.318C110.957 14.318 110.322 14.5706 109.846 15.0758C109.384 15.5666 109.153 16.2233 109.153 17.046V21.7876C109.153 22.7113 108.698 23.1732 107.789 23.1732ZM124.329 23.2165C123.131 23.2165 122.099 22.9928 121.233 22.5453C120.367 22.0979 119.696 21.4628 119.22 20.6401C118.758 19.8173 118.527 18.843 118.527 17.7172C118.527 16.6202 118.75 15.6604 119.198 14.8377C119.66 14.0149 120.288 13.3726 121.082 12.9107C121.89 12.4344 122.806 12.1963 123.831 12.1963C124.582 12.1963 125.253 12.3189 125.845 12.5643C126.451 12.8097 126.963 13.1633 127.382 13.6252C127.815 14.0871 128.14 14.65 128.356 15.314C128.587 15.9635 128.703 16.6996 128.703 17.5223C128.703 17.7822 128.609 17.9842 128.421 18.1286C128.248 18.2585 127.995 18.3234 127.663 18.3234H120.713V16.7646H126.797L126.451 17.0893C126.451 16.4254 126.35 15.8697 126.148 15.4222C125.96 14.9748 125.679 14.6356 125.303 14.4046C124.943 14.1593 124.488 14.0366 123.939 14.0366C123.333 14.0366 122.814 14.1809 122.381 14.4696C121.962 14.7438 121.637 15.1408 121.406 15.6604C121.19 16.1656 121.082 16.7718 121.082 17.479V17.6306C121.082 18.8142 121.356 19.7019 121.904 20.2937C122.467 20.871 123.29 21.1597 124.372 21.1597C124.748 21.1597 125.166 21.1164 125.628 21.0298C126.105 20.9287 126.552 20.7628 126.971 20.5318C127.274 20.3586 127.541 20.2864 127.772 20.3153C128.003 20.3297 128.183 20.4091 128.313 20.5535C128.457 20.6978 128.544 20.8782 128.573 21.0947C128.602 21.2968 128.558 21.5061 128.443 21.7226C128.342 21.9391 128.161 22.1268 127.902 22.2855C127.396 22.6031 126.812 22.8412 126.148 23C125.498 23.1443 124.892 23.2165 124.329 23.2165ZM132.232 23.1732C131.784 23.1732 131.438 23.0577 131.192 22.8268C130.961 22.5814 130.846 22.235 130.846 21.7876V13.6036C130.846 13.1561 130.961 12.8169 131.192 12.586C131.423 12.355 131.748 12.2396 132.167 12.2396C132.585 12.2396 132.91 12.355 133.141 12.586C133.372 12.8169 133.487 13.1561 133.487 13.6036V14.9676H133.271C133.473 14.1015 133.87 13.4448 134.462 12.9973C135.053 12.5499 135.84 12.2829 136.821 12.1963C137.125 12.1674 137.363 12.2468 137.536 12.4344C137.724 12.6076 137.832 12.8819 137.861 13.2571C137.89 13.618 137.803 13.9139 137.601 14.1448C137.413 14.3613 137.125 14.4912 136.735 14.5345L136.259 14.5778C135.378 14.6644 134.714 14.9387 134.267 15.4006C133.819 15.848 133.596 16.4831 133.596 17.3058V21.7876C133.596 22.235 133.48 22.5814 133.249 22.8268C133.018 23.0577 132.679 23.1732 132.232 23.1732ZM145.614 23.1732C145.267 23.1732 144.986 23.0938 144.769 22.935C144.567 22.7763 144.444 22.567 144.401 22.3072C144.358 22.0329 144.408 21.7298 144.553 21.3978L150.268 8.73213C150.456 8.31354 150.68 8.01765 150.94 7.84444C151.214 7.6568 151.524 7.56298 151.871 7.56298C152.203 7.56298 152.499 7.6568 152.758 7.84444C153.033 8.01765 153.264 8.31354 153.451 8.73213L159.189 21.3978C159.347 21.7298 159.405 22.0329 159.362 22.3072C159.319 22.5814 159.196 22.7979 158.994 22.9567C158.792 23.101 158.525 23.1732 158.193 23.1732C157.789 23.1732 157.471 23.0794 157.24 22.8917C157.024 22.6897 156.829 22.3866 156.655 21.9824L155.248 18.7131L156.417 19.4709H147.281L148.45 18.7131L147.064 21.9824C146.877 22.401 146.682 22.7041 146.48 22.8917C146.278 23.0794 145.989 23.1732 145.614 23.1732ZM151.827 10.7457L148.796 17.9554L148.233 17.2625H155.465L154.923 17.9554L151.871 10.7457H151.827ZM162.656 27.0703C162.223 27.0703 161.891 26.9549 161.66 26.7239C161.429 26.493 161.313 26.1538 161.313 25.7063V13.6036C161.313 13.1561 161.429 12.8169 161.66 12.586C161.891 12.355 162.216 12.2396 162.634 12.2396C163.067 12.2396 163.399 12.355 163.63 12.586C163.861 12.8169 163.976 13.1561 163.976 13.6036V15.2923L163.738 14.6428C163.955 13.9067 164.395 13.3149 165.059 12.8674C165.737 12.42 166.524 12.1963 167.419 12.1963C168.343 12.1963 169.151 12.42 169.844 12.8674C170.551 13.3149 171.1 13.95 171.489 14.7727C171.879 15.581 172.074 16.5553 172.074 17.6956C172.074 18.8214 171.879 19.8029 171.489 20.6401C171.1 21.4628 170.558 22.0979 169.865 22.5453C169.173 22.9928 168.357 23.2165 167.419 23.2165C166.538 23.2165 165.766 23 165.102 22.567C164.438 22.1195 163.991 21.5422 163.76 20.8349H164.02V25.7063C164.02 26.1538 163.897 26.493 163.652 26.7239C163.421 26.9549 163.089 27.0703 162.656 27.0703ZM166.661 21.1597C167.195 21.1597 167.664 21.0298 168.068 20.77C168.473 20.5102 168.783 20.1277 168.999 19.6225C169.23 19.1029 169.346 18.4606 169.346 17.6956C169.346 16.5408 169.1 15.682 168.61 15.1191C168.119 14.5418 167.469 14.2531 166.661 14.2531C166.127 14.2531 165.658 14.383 165.254 14.6428C164.85 14.8882 164.532 15.2707 164.301 15.7903C164.085 16.2955 163.976 16.9306 163.976 17.6956C163.976 18.8358 164.222 19.7019 164.713 20.2937C165.203 20.871 165.853 21.1597 166.661 21.1597ZM175.638 27.0703C175.205 27.0703 174.873 26.9549 174.642 26.7239C174.411 26.493 174.295 26.1538 174.295 25.7063V13.6036C174.295 13.1561 174.411 12.8169 174.642 12.586C174.873 12.355 175.198 12.2396 175.616 12.2396C176.049 12.2396 176.381 12.355 176.612 12.586C176.843 12.8169 176.958 13.1561 176.958 13.6036V15.2923L176.72 14.6428C176.937 13.9067 177.377 13.3149 178.041 12.8674C178.719 12.42 179.506 12.1963 180.401 12.1963C181.325 12.1963 182.133 12.42 182.826 12.8674C183.533 13.3149 184.082 13.95 184.471 14.7727C184.861 15.581 185.056 16.5553 185.056 17.6956C185.056 18.8214 184.861 19.8029 184.471 20.6401C184.082 21.4628 183.54 22.0979 182.848 22.5453C182.155 22.9928 181.339 23.2165 180.401 23.2165C179.521 23.2165 178.748 23 178.084 22.567C177.42 22.1195 176.973 21.5422 176.742 20.8349H177.002V25.7063C177.002 26.1538 176.879 26.493 176.634 26.7239C176.403 26.9549 176.071 27.0703 175.638 27.0703ZM179.643 21.1597C180.177 21.1597 180.646 21.0298 181.05 20.77C181.455 20.5102 181.765 20.1277 181.981 19.6225C182.212 19.1029 182.328 18.4606 182.328 17.6956C182.328 16.5408 182.083 15.682 181.592 15.1191C181.101 14.5418 180.451 14.2531 179.643 14.2531C179.109 14.2531 178.64 14.383 178.236 14.6428C177.832 14.8882 177.514 15.2707 177.283 15.7903C177.067 16.2955 176.958 16.9306 176.958 17.6956C176.958 18.8358 177.204 19.7019 177.695 20.2937C178.185 20.871 178.835 21.1597 179.643 21.1597Z" fill="#BFBFD4"/>
</g>
</svg>
