<svg width="40" height="40" viewBox="0 0 40 40" fill="none" xmlns="http://www.w3.org/2000/svg">
<g opacity="0.8">
<path d="M27.665 29.7803C26.5939 29.7803 25.9341 29.2858 24.8559 28.7034C23.7777 28.121 20.6593 25.7761 20.6593 22.8572C20.6593 20.8771 20.1489 19.2755 19.2796 17.9992C18.4168 16.7327 17.248 15.8552 16.032 15.2358C15.446 14.9374 14.8363 14.6933 14.2291 14.4916C13.8751 14.3741 13.6697 13.994 13.8233 13.6542C14.7967 11.4993 16.9645 10 19.4828 10C22.9107 10 25.6897 12.7789 25.6897 16.2069C25.6897 16.9403 25.5625 17.6441 25.3289 18.2972C26.3183 17.6304 27.5104 17.2413 28.7932 17.2413C32.2211 17.2413 34.9999 20.0202 34.9999 23.4483C34.9999 27.5751 31.3735 29.7803 27.665 29.7803Z" fill="#8FB2F5"/>
<path d="M5 22.9312C5 26.2029 7.15704 28.929 10.0146 29.5314C10.4557 29.6925 10.9319 29.7804 11.4286 29.7804H21.0723C21.3957 29.7804 21.5365 29.3479 21.2896 29.1389C19.6042 27.7129 18.3517 25.7031 18.3517 22.8573C18.3517 21.2936 17.9557 20.1547 17.3724 19.2985C16.7824 18.4325 15.9526 17.7852 14.9846 17.292C14.0077 16.7944 12.9471 16.4774 11.9342 16.2527C11.6957 16.2226 11.4529 16.207 11.2069 16.207C7.77887 16.207 5 19.2175 5 22.9312Z" fill="#8FB2F5"/>
</g>
</svg>
